<svg xmlns="http://www.w3.org/2000/svg" width="60" height="60" viewBox="0 0 60 60">
                              <g id="그룹_113" data-name="그룹 113" transform="translate(-1150 -8389)">
                                <g id="사각형_125" data-name="사각형 125" transform="translate(1150 8389)" fill="#fff" stroke="#707070" stroke-width="1" opacity="0">
                                  <rect width="60" height="60" stroke="none"></rect>
                                  <rect x="0.5" y="0.5" width="59" height="59" fill="none"></rect>
                                </g>
                                <path id="패스_326" data-name="패스 326" d="M21.795,14.963a1.44,1.44,0,1,1-1.432-1.588,1.516,1.516,0,0,1,1.432,1.588m7.153-1.588a1.6,1.6,0,1,0,1.432,1.588,1.516,1.516,0,0,0-1.432-1.588m-21.353,0a1.6,1.6,0,0,0,0,3.176,1.6,1.6,0,0,0,0-3.176M36.408,6.4V21.57c0,3.533-2.575,6.4-5.75,6.4h-8.58L19.15,33.25a.768.768,0,0,1-.1.158.935.935,0,0,1-1.7-.007,1.2,1.2,0,0,1-.1-.15L14.33,27.966H5.75C2.574,27.966,0,25.1,0,21.57V6.4C0,2.864,2.574,0,5.75,0H30.658c3.175,0,5.75,2.864,5.75,6.4M11.227,14.883s-.116-3.764-3.141-3.764a2.815,2.815,0,0,0-1.895.972V8.173H3.962V18.467H6.214V17.66a2.118,2.118,0,0,0,1.872,1.063s3.141-.128,3.141-3.841m.716-6.94v2.382s1.017-.051,1.017,2.049v6.093h2.148V11.81s.092-3.867-3.165-3.867m8.419,3.208a3.649,3.649,0,0,0-3.683,3.812s-.119,3.761,3.683,3.761c0,0,3.768-.006,3.768-3.761a3.621,3.621,0,0,0-3.768-3.812m12.084.25H30.28v.691a2.374,2.374,0,0,0-1.87-.94S25.256,11,25.256,14.937c0,0-.035,3.665,3.067,3.665a2.417,2.417,0,0,0,1.957-.941v.577s.157,1.805-1.42,1.805h-.537v2.189h.866s3.257.039,3.257-3.86Z" transform="translate(1161.796 8402.026)" fill="#fff"></path>
                              </g>
                            </svg>