<svg xmlns="http://www.w3.org/2000/svg" width="60" height="60" viewBox="0 0 60 60">
                              <g id="그룹_110" data-name="그룹 110" transform="translate(-1150 -8389)">
                                <g id="사각형_125" data-name="사각형 125" transform="translate(1150 8389)" fill="#fff" stroke="#707070" stroke-width="1" opacity="0">
                                  <rect width="60" height="60" stroke="none"></rect>
                                  <rect x="0.5" y="0.5" width="59" height="59" fill="none"></rect>
                                </g>
                                <path id="Icon_akar-youtube-fill" data-name="Icon akar-youtube-fill" d="M35.25,9.76A4.179,4.179,0,0,0,34.1,7.855a4.575,4.575,0,0,0-2.007-1.113C29.277,6,17.991,6,17.991,6a114.934,114.934,0,0,0-14.085.7A4.74,4.74,0,0,0,1.9,7.845,4.345,4.345,0,0,0,.732,9.759,43.635,43.635,0,0,0,0,18a43.556,43.556,0,0,0,.732,8.241,4.24,4.24,0,0,0,1.163,1.9,4.643,4.643,0,0,0,2.011,1.115C6.76,30,17.991,30,17.991,30a115.2,115.2,0,0,0,14.1-.7A4.575,4.575,0,0,0,34.1,28.182a4.17,4.17,0,0,0,1.147-1.905A42.57,42.57,0,0,0,36,18.035a39.869,39.869,0,0,0-.75-8.276ZM14.4,23.136V12.866L23.793,18,14.4,23.136Z" transform="translate(1161.998 8401)" fill="#fff"></path>
                              </g>
                            </svg>